<?xml version="1.0" encoding="utf-8"?>
<!-- Generator: Adobe Illustrator 24.0.2, SVG Export Plug-In . SVG Version: 6.00 Build 0)  -->
<svg version="1.1" id="Слой_1" xmlns:svgjs="http://svgjs.com/svgjs"
	 xmlns="http://www.w3.org/2000/svg" xmlns:xlink="http://www.w3.org/1999/xlink" x="0px" y="0px" viewBox="0 0 787 622"
	 style="enable-background:new 0 0 787 622;" xml:space="preserve">
<style type="text/css">
	.st0{fill:#00BEFE;}
</style>
<g>
	<path class="st0" d="M779,366c0-141.4-114.6-256-256-256c-17.9-0.2-35.8,0.8-53.6,3c65.9,36,107.3,104.7,108.5,179.8
		c-0.1,111-90.1,201-201.1,201.1c-28.3,0.6-56.4-4.9-82.4-16.3C335.6,566.6,425.1,623,523,622C664.4,622,779,507.4,779,366z"/>
</g>
<path class="st0" d="M51.8,272.2l8.3,30.8l8.3-30.8c4.5-16.5,17.4-29.5,33.9-33.9l18.8-8.3l-18.8-8.3c-16.5-4.5-29.5-17.4-33.9-33.9
	L60.1,157l-8.3,30.8c-4.5,16.5-17.4,29.5-33.9,33.9L0.1,230l17.8,8.3C34.4,242.7,47.3,255.7,51.8,272.2z"/>
<path class="st0" d="M178.9,478.4l6,22.2l6-22.2c3.2-11.9,12.5-21.2,24.4-24.4l13.5-6l-13.5-6c-11.9-3.2-21.2-12.5-24.4-24.4
	l-6-22.2l-6,22.2c-3.2,11.9-12.5,21.2-24.4,24.4l-12.8,6l12.8,6C166.4,457.2,175.7,466.5,178.9,478.4z"/>
<path class="st0" d="M303.6,77.5l4.7,17.5l4.7-17.5c2.5-9.4,9.9-16.8,19.3-19.3l10.7-4.7l-10.7-4.7c-9.4-2.5-16.8-9.9-19.3-19.3
	L308.3,12l-4.7,17.5c-2.5,9.4-9.9,16.8-19.3,19.3l-10.1,4.7l10.1,4.7C293.7,60.7,301.1,68.1,303.6,77.5z"/>
</svg>
